{"title":"Teen Wolf Season 4 EP5 I.E.D.1080P WEB-DL","uid":10615042,"size":1561641644,"categoryP":"video","categoryS":"hd___tv_shows","magnet":"?xt=urn:btih:b60ed698fed7da014485142f91bc5e9a12eefad8&amp;dn=Teen+Wolf+Season+4+EP5+I.E.D.1080P+WEB-DL&amp;tr=udp%3A%2F%2Ftracker.openbittorrent.com%3A80&amp;tr=udp%3A%2F%2Fopen.demonii.com%3A1337&amp;tr=udp%3A%2F%2Ftracker.coppersurfer.tk%3A6969&amp;tr=udp%3A%2F%2Fexodus.desync.com%3A6969","seeders":6,"leechers":0,"uploader":"jmanwf","files":1,"time":1406098125,"description":"Scott, Stiles and Kira take part in a Lacrosse game. Lydia needs help to control her powers.\n\n\n\nFormat : MPEG-4\nFormat profile : Base Media / Version 2\nCodec ID : mp42\nFile size : 1.45 GiB\nDuration : 41mn 55s\nOverall bit rate mode : Variable\nOverall bit rate : 4 966 Kbps\nMovie name : I.E.D.\nAlbum : Teen Wolf, Season 4\nPart/Position : 1\nPart/Total : 1\nTrack name/Position : 5\nTrack name/Total : 7\nPerformer : Teen Wolf\nGenre : Sci-Fi &amp; Fantasy\n\nVideo\nID : 2\nFormat : AVC\nFormat/Info : Advanced Video Codec\nFormat profile : &lt;a class=&quot;__cf_email__&quot; href=&quot;/cdn-cgi/l/email-protection&quot; data-cfemail=&quot;4a02232d220a067e647a&quot;&gt;[email&amp;#160;protected]&lt;/a&gt;&lt;script cf-hash='f9e31' type=&quot;text/javascript&quot;&gt;\n/* &lt;![CDATA[ */!function(){try{var t=&quot;currentScript&quot;in document?document.currentScript:function(){for(var t=document.getElementsByTagName(&quot;script&quot;),e=t.length;e--;)if(t[e].getAttribute(&quot;cf-hash&quot;))return t[e]}();if(t&amp;&amp;t.previousSibling){var e,r,n,i,c=t.previousSibling,a=c.getAttribute(&quot;data-cfemail&quot;);if(a){for(e=&quot;&quot;,r=parseInt(a.substr(0,2),16),n=2;a.length-n;n+=2)i=parseInt(a.substr(n,2),16)^r,e+=String.fromCharCode(i);e=document.createTextNode(e),c.parentNode.replaceChild(e,c)}}}catch(u){}}();/* ]]&gt; */&lt;/script&gt;\nFormat settings, CABAC : Yes\nFormat settings, ReFrames : 4 frames\nCodec ID : avc1\nCodec ID/Info : Advanced Video Coding\nDuration : 41mn 55s\nBit rate : 4 835 Kbps\nWidth : 1 916 pixels\nHeight : 1 076 pixels\nDisplay aspect ratio : 16:9\nFrame rate : 23.976 fps\nColor space : YUV\nChroma subsampling : 4:2:0\nBit depth : 8 bits\nScan type : Progressive\nBits/(Pixel*Frame) : 0.098\nStream size : 1.42 GiB (97%)\nLanguage : English\nEncoded date : UTC 2014-07-22 08:19:13\nTagged date : UTC 2014-07-22 08:19:55\nColor primaries : BT.709\nTransfer characteristics : BT.709\nMatrix coefficients : BT.709\n\nAudio\nID : 1\nFormat : AAC\nFormat/Info : Advanced Audio Codec\nFormat profile : LC\nCodec ID : 40\nDuration : 41mn 55s\nBit rate mode : Variable\nBit rate : 126 Kbps\nMaximum bit rate : 181 Kbps\nChannel(s) : 2 channels\nChannel positions : Front: L R\nSampling rate : 48.0 KHz\nCompression mode : Lossy\nStream size : 37.8 MiB (3%)\nLanguage : English\nEncoded date : UTC 2014-07-22 08:17:08\nTagged date : UTC 2014-07-22 08:19:12","torrent":{"xt":"urn:btih:b60ed698fed7da014485142f91bc5e9a12eefad8","amp;dn":"Teen+Wolf+Season+4+EP5+I.E.D.1080P+WEB-DL","amp;tr":["udp%3A%2F%2Ftracker.openbittorrent.com%3A80","udp%3A%2F%2Fopen.demonii.com%3A1337","udp%3A%2F%2Ftracker.coppersurfer.tk%3A6969","udp%3A%2F%2Fexodus.desync.com%3A6969"],"infoHash":"b60ed698fed7da014485142f91bc5e9a12eefad8","infoHashBuffer":{"type":"Buffer","data":[182,14,214,152,254,215,218,1,68,133,20,47,145,188,94,154,18,238,250,216]},"announce":[],"urlList":[]}}